<svg viewBox="0 0 306 119" focusable="false" class="chakra-icon css-wu94qf"><path d="M32.8008 26.8C22.1008 26.8 14.8008 33.9001 14.8008 44.4001C14.8008 54.8001 22.1008 61.9001 33.1008 61.9001C39.0008 61.9001 43.8008 59.8 46.9008 56.1C47.5008 55.4 47.7008 54.6001 47.7008 53.8001C47.7008 51.6001 46.3008 50.2 44.1008 50.2C43.0008 50.2 42.1008 50.6 41.2008 51.6C39.5008 53.6 36.7008 55 33.1008 55C27.7008 55 23.8008 51.9 22.9008 47H45.3008C48.0008 47 49.8008 45.3 49.8008 42.5V42.1C49.9008 33.8 42.5008 26.8 32.8008 26.8ZM22.9008 41C23.9008 36.5 27.9008 33.7 32.8008 33.7C37.7008 33.7 41.4008 36.6 42.4008 41H22.9008Z" fill="currentColor"></path><path d="M81.1996 14.7H61.0996C58.2996 14.7 56.5996 16.4 56.5996 19.2V57.5C56.5996 60.3 58.0996 62 60.7996 62C63.3996 62 64.8996 60.3 64.8996 57.5V44.6999H81.0996C91.3996 44.6999 96.9996 39.5 96.9996 29.7C96.9996 20 91.4996 14.7 81.1996 14.7ZM80.2996 37.0999H64.8996V22.4H80.2996C85.5996 22.4 88.4996 25 88.4996 29.7C88.4996 34.6 85.5996 37.0999 80.2996 37.0999Z" fill="currentColor"></path><path d="M108.199 62H139.099C141.599 62 143.199 60.5 143.199 58.2C143.199 55.8 141.599 54.4001 139.099 54.4001H112.099V42.2H133.999C136.599 42.2 138.099 40.7001 138.099 38.4001C138.099 36.1001 136.599 34.6 133.999 34.6H112.099V22.4001H139.099C141.599 22.4001 143.199 21 143.199 18.6C143.199 16.2 141.599 14.8 139.099 14.8H108.199C105.399 14.8 103.699 16.5 103.699 19.3V57.5C103.799 60.3 105.399 62 108.199 62Z" fill="currentColor"></path><path d="M255.1 14.7C252.4 14.7 250.9 16.4 250.9 19.2V57.5C250.9 60.3 252.4 62 255.1 62C257.7 62 259.2 60.3 259.2 57.5V19.2C259.2 16.4 257.7 14.7 255.1 14.7Z" fill="currentColor"></path><path d="M105.6 71.1001C102.9 71.1001 101.4 72.8001 101.4 75.6001V113.9C101.4 116.7 102.9 118.4 105.6 118.4C108.2 118.4 109.7 116.7 109.7 113.9V75.6001C109.7 72.8001 108.2 71.1001 105.6 71.1001Z" fill="currentColor"></path><path d="M286.899 34.2L285.299 34.1C280.399 33.9 275.899 33.2 275.199 30.8C274.999 30.1 274.999 29.4 275.099 28.8C275.199 27.7 275.599 26.8 276.299 26C277.899 24.1 280.999 22.9 285.199 22.7C293.599 22.3 297.699 26.1 297.899 26.3C299.599 27.7 301.899 27.9 303.499 26.4C305.099 24.9 305.099 22.4 303.599 20.8C303.299 20.5 297.099 14.2 284.899 14.8C276.599 15.2 272.399 18.4 270.199 21C267.799 24 266.799 27.9 267.399 32.1C268.899 41.4 279.799 41.9 284.999 42.1L286.599 42.2C295.099 42.6 297.899 43.9 297.899 47.7C297.899 50 297.099 51 296.499 51.6C294.799 53.3 291.099 54.3 286.799 54.2C282.799 54.1 277.499 53.1 273.899 50.5C273.399 50.1 272.899 49.7 272.499 49.3C270.999 47.7 268.199 47.9 266.899 49.3C265.399 50.9 265.299 53.3 266.899 54.9C273.199 61.4 282.899 62.2 286.699 62.2C286.899 62.2 286.999 62.2 287.199 62.2C291.099 62.2 297.799 61.5 302.099 57.3C304.599 54.9 305.899 51.6 305.899 47.7C305.799 35 292.099 34.4 286.899 34.2Z" fill="currentColor"></path><path d="M90.8996 110.7H64.8996V75.5C64.8996 72.7 63.3996 71 60.7996 71C58.0996 71 56.5996 72.7 56.5996 75.5V113.8C56.5996 116.6 58.2996 118.3 61.0996 118.3H90.8996C93.3996 118.3 94.9996 116.8 94.9996 114.5C95.0996 112.1 93.4996 110.7 90.8996 110.7Z" fill="currentColor"></path><path d="M195.3 99.7001V99.5001C201.7 97.8001 205.2 93.0001 205.2 85.4001C205.2 76.0001 199.7 71.1001 189.4 71.1001H169.6C166.8 71.1001 165.1 72.8001 165.1 75.6001V113.9C165.1 116.7 166.6 118.4 169.3 118.4C171.9 118.4 173.4 116.7 173.4 113.9V100.8H185.6L197.8 116.5C198.7 117.7 199.9 118.4 201.4 118.4C204 118.4 205.6 116.8 205.6 114.3C205.6 113.2 205.3 112.2 204.5 111.2L195.3 99.7001ZM188.6 92.4001H173.5V79.4001H188.6C193.9 79.4001 196.7 81.7001 196.7 85.9001C196.7 90.1001 193.9 92.4001 188.6 92.4001Z" fill="currentColor"></path><path d="M234 57.6999C234.1 60.4999 235.8 62.1 238.5 62C241.2 61.9 242.7 60.2 242.6 57.4L241.6 28.7L233.4 42.5L234 57.6999Z" fill="currentColor"></path><path d="M219.8 48.5C222.8 48.5 224.2 46.9 225.8 44.1L248.3 6.1C249.9 3.4 248 0 244.8 0C243.4 0 242.1 0.8 241.3 2L238.4 6.8L219.8 38.5L207.8 18C206.7 16.1 204.9 14.4 202.3 14.7C202.2 14.7 202.1 14.7 201.9 14.8C201.7 14.8 201.5 14.9 201.5 14.9C199.9 15.4 198.9 16.8 198.8 18.9L197.2 57.4C197.1 60.1 198.5 61.9 201.1 62C203.6 62.1 205.2 60.5 205.3 57.8L206.4 31.5L213.9 44.4C215.2 46.6 216.9 48.5 219.8 48.5Z" fill="currentColor"></path><path d="M247.701 78.7001C250.201 78.7001 251.801 77.3001 251.801 74.9001C251.801 72.5001 250.201 71.1001 247.701 71.1001H216.801C214.001 71.1001 212.301 72.8001 212.301 75.6001V113.9C212.301 116.7 214.001 118.4 216.801 118.4H247.701C250.201 118.4 251.801 116.9 251.801 114.6C251.801 112.2 250.201 110.8 247.701 110.8H220.701V98.6001H242.601C245.201 98.6001 246.701 97.1001 246.701 94.8001C246.701 92.5001 245.201 91.0001 242.601 91.0001H220.701V78.7001H247.701Z" fill="currentColor"></path><path d="M154.2 62C156.8 62 158.3 60.3 158.3 57.5V44.4001H170.5L182.7 60.1C183.6 61.3 184.8 62 186.3 62C188.9 62 190.5 60.4001 190.5 57.9001C190.5 56.8001 190.2 55.8001 189.4 54.8001L180.2 43.3001V43.2C186.6 41.5 190.1 36.7 190.1 29.1C190.1 19.7 184.6 14.8 174.3 14.8H154.5C151.7 14.8 150 16.5 150 19.3V57.5C150 60.3 151.5 62 154.2 62ZM158.3 23.1H173.4C178.7 23.1 181.5 25.4 181.5 29.6C181.5 33.8 178.7 36.1 173.4 36.1H158.3V23.1Z" fill="currentColor"></path><path d="M151.9 94.4001C151.8 94.4001 151.8 94.3001 151.9 94.3001C155.7 92.4001 157.5 88.7001 157.5 84.0001C157.5 75.2001 152.5 71.1001 141.9 71.1001H121.5C118.7 71.1001 117 72.8001 117 75.6001V113.8C117 116.6 118.7 118.3 121.5 118.3H143.3C153.9 118.3 158.9 114.1 158.9 105.3C158.9 100 156.6 96.2001 151.9 94.4001ZM125.4 79.4001H141.6C146.5 79.4001 149.1 81.2001 149.1 84.9001C149.1 88.6001 146.6 90.3001 141.6 90.3001H125.4V79.4001ZM142.8 110H125.4V98.7001H142.8C147.7 98.7001 150.3 100.5 150.3 104.3C150.3 108.1 147.8 110 142.8 110Z" fill="currentColor"></path><path d="M4.2 14.7C1.5 14.7 0 16.4 0 19.2V57.5C0 60.3 1.5 62 4.2 62C6.8 62 8.3 60.3 8.3 57.5V19.2C8.4 16.4 6.8 14.7 4.2 14.7Z" fill="currentColor"></path></svg>